<?xml version="1.0" encoding="UTF-8"?>
<!DOCTYPE svg PUBLIC "-//W3C//DTD SVG 1.1//EN" "http://www.w3.org/Graphics/SVG/1.1/DTD/svg11.dtd">
<!-- Creator: CorelDRAW -->
<svg xmlns="http://www.w3.org/2000/svg" xml:space="preserve" width="130mm" height="60mm" version="1.1" style="shape-rendering:geometricPrecision; text-rendering:geometricPrecision; image-rendering:optimizeQuality; fill-rule:evenodd; clip-rule:evenodd"
viewBox="0 0 13000 6000"
 xmlns:xlink="http://www.w3.org/1999/xlink"
 xmlns:xodm="http://www.corel.com/coreldraw/odm/2003">
 <defs>
  <style type="text/css">
   <![CDATA[
    .fil0 {fill:#2B2A29;fill-rule:nonzero}
   ]]>
  </style>
 </defs>
 <g id="Слой_x0020_1">
  <metadata id="CorelCorpID_0Corel-Layer"/>
  <g id="_2026806876544">
   <g>
    <path class="fil0" d="M532.03 3436.17l40.97 3.16 65.41 111.88 -43.16 25.24 -65.41 -111.88 40.97 3.16 -38.78 -31.56zm0 0l22.76 -27.98 18.21 31.14 -40.97 -3.16zm-209.4 326.79l-23.62 -40.42 233.02 -286.37 38.78 31.56 -233.02 286.37 -23.62 -40.42 8.46 49.28zm0 0l-65.69 11.29 42.07 -51.71 23.62 40.42zm381.25 -99.78l-17.35 37.25 -363.9 62.53 -8.46 -49.28 363.89 -62.52 -17.34 37.25 43.16 -25.23zm0 0l18.21 31.14 -35.56 6.11 17.35 -37.25zm-87.05 -99.35l21.58 -12.62 65.47 111.97 -43.16 25.23 -65.47 -111.96 21.58 -12.62zm193.83 -139.56l25.24 43.16 -216.99 124.14 -25.24 -43.16 216.99 -124.14zm436.71 -244.41l24.42 43.64 -211.52 115.57 -7.37 4.21 -25.24 -43.16 8.19 -4.69 211.52 -115.57zm441.69 -235.34l23.54 44.12 -221.8 115.33 -23.54 -44.12 221.8 -115.33zm446.92 -225.29l22.6 44.6 -224.23 110.54 -22.6 -44.6 224.23 -110.54zm452.39 -214.17l21.62 45.08 -226.66 105.47 -21.62 -45.08 226.66 -105.47zm458.96 -201.3l19.46 46.06 -32.39 13.21 -196.48 85.85 -20.58 -45.58 197.6 -86.33 32.39 -13.21zm465.02 -185.31l18.3 46.54 -145.89 55.15 -86.49 35.27 -19.46 -46.06 87.65 -35.75 145.89 -55.15zm471.04 -169.54l17.06 47 -236.15 82.07 -17.06 -47 236.15 -82.07zm478.74 -148.8l14.4 47.88 -124.33 35.34 -114.44 36.2 -15.76 -47.46 115.8 -36.62 124.33 -35.34zm485.17 -126.75l11.44 48.68 -28.34 6.18 -213.55 53.72 -12.96 -48.3 215.07 -54.1 28.34 -6.18zm490.95 -98.55l9.86 49.02 -245.88 45.19 -9.86 -49.02 245.88 -45.19zm498.15 -65.88l4.76 49.78 -3.91 0.3 -233.76 26.46 -8.98 1.34 -8.22 -49.32 10.68 -1.6 235.52 -26.66 3.91 -0.3zm501.02 -25.56l1.08 49.98 -67.86 0.15 -181.06 7.24 -2.94 -49.92 182.92 -7.3 67.86 -0.15zm501.3 19.56l-2.72 49.92 -175.44 -13.02 -73.08 -2.61 0.82 -50 74.98 2.69 175.44 13.02zm497.91 74.92l-10.24 48.94 -6.79 -1.55 -150.43 -28.68 -87.02 -13.21 6.54 -49.58 88.9 13.51 152.25 29.02 6.79 1.55zm483.83 134.84l-15.26 47.62 -87.43 -29.6 -124.18 -37.69 -25.34 -6.77 12 -48.54 27.02 7.21 125.76 38.17 87.43 29.6zm423.08 171.07l-20.72 45.5 0 0 -86.58 -38.73 -93.5 -39.92 -5.21 -2.1 18 -46.64 6.33 2.54 94.4 40.3 87.28 39.05 0 0zm41.74 20.24l-20.72 45.5 -41.74 -20.24 20.72 -45.5 41.74 20.24zm412.72 294.38l-36.76 33.9 -1.3 -1.51 -45.9 -46.61 -51.25 -45.77 -56.69 -44.72 -29.16 -20.36 27.46 -41.78 31.48 21.98 59.03 46.56 53.59 47.85 48.2 48.95 1.3 1.51zm202.07 464.39l-50 0.64 0.23 -6.86 -2.7 -45.65 -7.05 -46.48 -11.51 -47.13 -16.08 -47.62 -16.19 -37.34 45.02 -21.74 17.81 41.08 17.44 51.64 12.55 51.39 7.73 50.94 2.98 50.27 -0.23 6.86zm-248.77 434.53l-29.32 -40.5 36.55 -24.06 35.93 -28.61 32.38 -31.06 28.78 -33.35 25.11 -35.45 8 -13.98 44.56 22.66 -10.42 18.22 -27.89 39.39 -31.88 36.93 -35.74 34.3 -39.51 31.45 -36.55 24.06zm-272.62 94.22l-6.8 -49.54 0 0 26.02 -4.56 10.44 48.9 -29.66 5.2 0 0zm-226.63 5.37l4.02 -49.84 8.13 0.95 67.75 3.03 69.27 -1.93 70.66 -7.12 6.8 49.54 -74.24 7.48 -72.89 2.03 -71.37 -3.19 -8.13 -0.95zm-474.21 -176.82l27.16 -41.98 41.26 28.77 52.5 31.45 55.18 28.06 57.7 24.45 6.58 2.26 -14.54 47.84 -9.9 -3.4 -60.92 -25.81 -58.28 -29.64 -55.48 -33.23 -41.26 -28.77zm-305.95 -405.75l47.12 -16.74 3.53 11.39 20.72 51.65 24.93 50.32 28.94 48.78 32.82 46.99 1.78 2.19 -37.66 32.88 -4.04 -4.97 -34.92 -49.99 -30.86 -52 -26.63 -53.78 -22.2 -55.33 -3.53 -11.39zm28.46 -503.84l46.54 18.3 -20.36 45.48 -18.51 54.54 -13.02 54.87 -7.72 55 -1 21.29 -50 -0.08 1.22 -25.87 8.36 -59.62 14.12 -59.43 20.01 -59 20.36 -45.48zm173.68 -233.54l34.26 36.42 0 0 -20.75 21.17 -37.12 -33.5 23.61 -24.09 0 0zm162.38 -146.86l33.32 37.28 -45.11 39.25 -116.33 106.75 -34.26 -36.42 117.27 -107.61 45.11 -39.25zm392.92 -312.3l30 40 -89.1 64.68 -110.04 85.17 -31.18 -39.08 111.22 -86.09 89.1 -64.68zm425.66 -267.81l24.6 43.52 -44.21 24.04 -117.73 69.14 -51.99 32.86 -27.4 -41.82 53.37 -33.74 119.15 -69.96 44.21 -24.04zm453.9 -216.44l18.94 46.28 -2.98 1.17 -125.8 53.68 -98.43 45.62 -21.74 -45.02 99.85 -46.28 127.18 -54.28 2.98 -1.17zm473.34 -166.65l15.18 47.64 -76.72 23.45 -135.34 44.93 -24.35 8.8 -17.62 -46.8 25.61 -9.24 136.52 -45.33 76.72 -23.45zm484.33 -129.91l12.2 48.48 -127.74 30.96 -114.27 29.84 -13.1 -48.26 115.17 -30.06 127.74 -30.96zm489.86 -105.26l10.1 48.98 -141.9 28.42 -102.68 21.79 -10.7 -48.84 103.28 -21.93 141.9 -28.42zm492.31 -90.96l8.82 49.22 -107.35 18.88 -138.54 25.26 -9.16 -49.16 138.88 -25.32 107.35 -18.88zm493.22 -83.94l8.2 49.32 -13.77 2.27 -202.66 33.95 -29.95 5.12 -8.54 -49.26 30.15 -5.16 202.8 -33.97 13.77 -2.27zm493.41 -81.25l8.1 49.34 -78.34 12.86 -168.35 27.66 -8.12 -49.34 168.37 -27.66 78.34 -12.86zm493.27 -81.5l8.18 49.32 -109.6 18.28 -137.06 22.64 -8.12 -49.34 137 -22.62 109.6 -18.28z"/>
   </g>
   <g>
    <path class="fil0" d="M12546.34 448.24l-49.98 1.6 -0.14 -5.13 -3.19 -85.12 -3.2 -67.91 -2.79 -49.71 -1.97 -30.51 -0.73 -10.18 49.86 -3.86 0.77 10.72 1.99 30.87 2.81 50.13 3.22 68.37 3.21 85.6 0.14 5.13zm4.16 501.07l-50 -0.66 0.22 -11.57 0.94 -143.86 -0.52 -93.96 50 -0.54 0.52 94.54 -0.94 144.48 -0.22 11.57zm-17.28 500.71l-49.92 -2.74 0.6 -9.62 8.35 -177.35 2.04 -62.07 49.98 1.32 -2.06 62.75 -8.39 178.09 -0.6 9.62zm-38.67 499.28l-49.8 -4.38 12.16 -126.13 9.66 -122.48 49.88 3.54 -9.74 123.32 -12.16 126.13zm-60.23 497.25l-49.6 -6.24 28.75 -211.88 4.09 -35.46 49.72 5.28 -4.21 36.42 -28.75 211.88zm-85.85 494.22l-49.08 -9.56 10.9 -52.48 35 -192.65 49.3 8.38 -35.22 193.83 -10.9 52.48zm-113.3 488.28l-48.48 -12.2 24.71 -92.49 35.28 -149.46 48.82 10.84 -35.62 150.82 -24.71 92.49zm-144.88 480.06l-47.62 -15.26 41.95 -123.59 34.25 -113.61 48.1 13.68 -34.73 115.19 -41.95 123.59zm-181.43 467.71l-46.34 -18.78 64.21 -149.69 30.72 -80.48 47.04 16.96 -31.42 82.3 -64.21 149.69zm-223.66 449.37l-44.5 -22.78 93.81 -172.84 22.67 -47.02 45.5 20.72 -23.67 49.08 -93.81 172.84zm-272.84 423.47l-40.22 -29.7 2.7 -3.43 129.93 -187.67 7.59 -12.41 43.32 24.98 -9.01 14.71 -131.61 190.09 -2.7 3.43zm-293.47 348.99l-36.04 -34.64 134.47 -149.81 38.28 32.16 -136.71 152.29zm94.65 86.22l-21.58 -45.09 -6.53 40.56 -93.42 -89.79 34.64 -36.04 93.42 89.79 -6.53 40.57zm0 0l6.53 -40.57 26 24.99 -32.53 15.58zm-366.68 126.96l45.92 19.78 -33.75 -32.43 332.93 -159.4 21.58 45.09 -332.93 159.39 -33.75 -32.43zm0 0l33.75 32.43 -60.11 28.78 26.36 -61.21zm186.3 -347.18l-34.64 36.04 40.28 -8.13 -146.02 339.05 -45.92 -19.78 146.02 -339.05 40.28 -8.13zm0 0l-40.28 8.13 14.27 -33.13 26.01 25zm76.17 107.88l-17.32 18.02 -93.49 -89.86 34.64 -36.04 93.49 89.86 -17.32 18.02z"/>
   </g>
  </g>
 </g>
</svg>
