<?xml version="1.0" encoding="UTF-8"?>
<!DOCTYPE svg PUBLIC "-//W3C//DTD SVG 1.1//EN" "http://www.w3.org/Graphics/SVG/1.1/DTD/svg11.dtd">
<!-- Creator: CorelDRAW -->
<svg xmlns="http://www.w3.org/2000/svg" xml:space="preserve" width="155mm" height="37mm" version="1.1" style="shape-rendering:geometricPrecision; text-rendering:geometricPrecision; image-rendering:optimizeQuality; fill-rule:evenodd; clip-rule:evenodd"
viewBox="0 0 15500 3700"
 xmlns:xlink="http://www.w3.org/1999/xlink"
 xmlns:xodm="http://www.corel.com/coreldraw/odm/2003">
 <defs>
  <style type="text/css">
   <![CDATA[
    .fil0 {fill:#2B2A29;fill-rule:nonzero}
   ]]>
  </style>
 </defs>
 <g id="Слой_x0020_1">
  <metadata id="CorelCorpID_0Corel-Layer"/>
  <g>
   <path class="fil0" d="M365.16 3269.52l1.06 49.98 -27.5 0.65 -65.66 1.17 -55.06 0.66 -43.9 0.28 -32.1 0.03 -19.73 -0.08 -6.83 -0.05 0.56 -50 6.51 0.05 19.53 0.08 31.86 -0.03 43.62 -0.28 54.78 -0.66 65.36 -1.15 27.5 -0.65zm498.65 -21.12l2.8 49.92 -61.52 3.69 -109.71 5.71 -78.81 3.51 -2.04 -49.96 78.43 -3.49 109.33 -5.69 61.52 -3.69zm497.53 -39.03l4.62 49.78 -57.55 5.62 -134.31 11.74 -57.66 4.48 -3.66 -49.86 57.2 -4.46 133.81 -11.68 57.55 -5.62zm495.76 -57.8l6.3 49.6 -126.4 16.82 -121.9 14.7 -5.7 -49.68 121.3 -14.62 126.4 -16.82zm492.14 -79.46l9.14 49.16 -12.14 2.36 -154.58 27.42 -80.37 12.98 -7.62 -49.42 79.63 -12.86 153.8 -27.28 12.14 -2.36zm487.08 -106.08l11.92 48.56 -37.36 9.59 -154.43 36.16 -52.62 11.24 -10 -49 51.7 -11.04 153.43 -35.92 37.36 -9.59zm477.99 -139.77l15.46 47.56 -65.34 22.25 -148.97 46.11 -25.33 7.14 -13 -48.28 24.15 -6.8 147.69 -45.73 65.34 -22.25zm461.64 -184.77l20.02 45.82 -104.93 48.24 -125.07 51.88 -18.36 -46.5 123.41 -51.2 104.93 -48.24zm408.29 -272.05l32.38 38.1 -41 37.91 -107.32 83.94 -51.98 34 -25.54 -42.98 48.42 -31.68 104.04 -81.38 41 -37.91zm308.61 -381.1l42.34 26.6 -21.32 36.74 -71.47 105.52 -51.89 65.72 -38.02 -32.48 49.57 -62.78 69.47 -102.58 21.32 -36.74zm194.89 -452.08l47.6 15.28 -15.11 52.14 -40.26 114.3 -30.02 71.44 -45.46 -20.8 28.84 -68.64 39.3 -111.58 15.11 -52.14zm83.14 -486.49l49.76 4.92 -7.07 97.13 -13.76 110.61 -7.63 43.06 -48.98 -10.02 7.17 -40.5 13.44 -108.07 7.07 -97.13zm-44.61 -487.25l48.5 -12.18 7.05 24.13 17.56 82.19 13 88.8 4.81 55.56 -49.92 2.9 -4.57 -52.72 -12.54 -85.74 -16.84 -78.81 -7.05 -24.13zm-294.95 -231.53l-22.5 -44.66 30.07 -19.65 50.74 -17.67 50.2 -1.98 47.59 13.32 43.29 26.9 30.62 30.47 -38.42 32 -23.5 -23.49 -32.37 -20.22 -32.99 -9.32 -34.72 1.38 -37.94 13.27 -30.07 19.65zm-282.32 389.54l-43.78 -24.16 34.97 -75.37 86.17 -135.18 7.73 -9.53 37.22 33.38 -4.47 5.51 -82.87 129.98 -34.97 75.37zm-43.18 469.64l-49.3 8.32 -19.3 -72.28 -8.99 -120.03 6.97 -63.56 49.02 9.84 -5.99 54.68 8.29 110.75 19.3 72.28zm280.92 384.16l-34.48 36.2 -75.03 -63.26 -88.13 -95.43 -16.49 -24.03 43.34 -24.94 12.17 17.69 83.59 90.51 75.03 63.26zm426.27 238.84l-18.58 46.42 -7.69 -2.77 -148.87 -66.12 -72.88 -39.78 25.9 -42.76 69.06 37.68 145.37 64.56 7.69 2.77zm476.41 138.5l-12.4 48.44 -155.5 -35.08 -88.53 -25.56 15.38 -47.58 85.55 24.7 155.5 35.08zm491.14 66.42l-4.56 49.8 -74.3 -5.01 -175.59 -20.49 7.04 -49.5 173.11 20.19 74.3 5.01zm497.26 9.74l0.12 50 -148.9 3.72 -102.18 -2.11 2.18 -49.96 99.88 2.07 148.9 -3.72zm495.86 -40.48l4.62 49.78 -198.64 22.87 -51.04 3.59 -2.38 -49.94 48.8 -3.43 198.64 -22.87zm489.74 -87.98l9.06 49.18 -226.85 47.09 -19.2 3.08 -6.84 -49.52 16.98 -2.74 226.85 -47.09zm477.87 -134.11l15.84 47.42 -1.1 0.39 -237 72.76 -3.17 0.82 -11.3 -48.7 0.91 -0.24 234.72 -72.06 1.1 -0.39zm464.61 -181.02l18.14 46.6 -230.63 96.49 -18.14 -46.6 230.63 -96.49zm442.33 -227.11l22.86 44.46 -214.8 117.75 -5.73 2.75 -20.48 -45.6 3.35 -1.61 214.8 -117.75zm453.59 -215.61l17.5 46.84 -23.87 8.03 -132.84 54.39 -70.58 33.92 -22.92 -44.44 73.14 -35.16 135.7 -55.55 23.87 -8.03zm493.9 -106.94l3.7 49.86 -14.72 0.52 -116.44 13.02 -112.45 21.1 -11 -48.78 116.01 -21.76 120.18 -13.44 14.72 -0.52zm502.22 52.59l-11.1 48.76 -68.94 -18.25 -103.9 -19.88 -68.78 -8.01 3.88 -49.84 72.48 8.43 107.42 20.54 68.94 18.25zm464.1 200.73l-24.46 43.6 -33.56 -19.79 -93.48 -49.79 -92.88 -43.72 20.04 -45.8 95.24 44.82 95.54 50.89 33.56 19.79zm414.46 284.75l-29.88 40.08 -81.29 -61.95 -88.82 -64.74 -30.1 -20.72 27.7 -41.64 31.3 21.56 89.8 65.46 81.29 61.95zm389.65 315.11l-31.68 38.68 -31.06 -25.38 -87.48 -71.88 -74.74 -61.16 31.54 -38.8 74.9 61.3 87.46 71.86 31.06 25.38zm393.9 305.81l-29.74 40.18 -71.45 -51.67 -90.11 -68.24 -39.06 -30.65 31.1 -39.14 38.48 30.19 89.33 67.66 71.45 51.67zm420.34 265.69l-25.5 43 -31.65 -18.59 -92.32 -55.26 -90.61 -55.08 26.08 -42.66 90.35 54.92 92 55.08 31.65 18.59zm436.59 240.09l-22.62 44.6 -24.58 -12.19 -87.87 -45.58 -88.42 -47.68 -21.19 -11.81 24.62 -43.52 20.61 11.49 87.76 47.32 87.11 45.18 24.58 12.19zm456.35 196.26l-17.34 46.9 -49.02 -17.34 -87.72 -33.81 -87.42 -36.33 -10.23 -4.56 20.8 -45.46 9.19 4.08 86.24 35.85 86.48 33.33 49.02 17.34zm479.5 124.61l-9.78 49.04 -86.87 -15.78 -91.8 -19.94 -67.32 -17 13.02 -48.28 65.72 16.6 90.16 19.58 86.87 15.78zm492.8 36.34l0.58 50 -5.81 0.16 -102.16 -0.56 -100.03 -3.99 -44.38 -3.33 4.6 -49.78 42.64 3.19 98.29 3.93 100.46 0.54 5.81 -0.16zm494.41 -44.28l6.9 49.52 -73.25 11.28 -112.35 13.95 -63.92 5.96 -3.86 -49.86 62.36 -5.8 110.87 -13.77 73.25 -11.28zm486.01 -104.38l12.12 48.5 -83.65 21.94 -125.26 29.69 -35.27 7.43 -9.66 -49.06 34.01 -7.17 124.06 -29.39 83.65 -21.94zm6.95 -134.12l-4.53 49.8 26.37 -31.52 34.31 124.98 -48.22 13.24 -34.3 -124.98 26.37 -31.52zm0 0l-26.37 31.52 -9.55 -34.79 35.92 3.27zm380.07 78.62l-29.32 -40.5 12.39 45.15 -367.67 -33.47 4.53 -49.8 367.68 33.47 12.39 45.15zm0 0l-12.39 -45.15 66.38 6.05 -53.99 39.1zm-337.8 202.95l48.21 -13.24 -38.77 -13.63 299.04 -216.58 29.32 40.5 -299.03 216.58 -38.77 -13.63zm0 0l38.77 13.63 -29.22 21.16 -9.55 -34.79zm-10.23 -131.69l24.11 -6.62 34.33 125.07 -48.21 13.24 -34.34 -125.07 24.11 -6.62z"/>
  </g>
 </g>
</svg>
